HIERARCHY
ROOT Hips
{
	OFFSET	0.000000	0.000000	0.000000
	CHANNELS 6 Xposition Yposition Zposition Zrotation Xrotation Yrotation
	JOINT LeftHip
	{
		OFFSET	5.000000	0.000000	0.000000
		CHANNELS 3 Zrotation Xrotation Yrotation
		JOINT LeftKnee
		{
			OFFSET	0.000000	-15.000000	0.000000
			CHANNELS 3 Zrotation Xrotation Yrotation
			JOINT LeftAnkle
			{
				OFFSET	0.000000	-15.500000	0.000000
				CHANNELS 3 Zrotation Xrotation Yrotation
				End Site
				{
					OFFSET	0.000000	-4.500000	-3.000000
				}
			}
		}
	}
	JOINT RightHip
	{
		OFFSET	-5.000000	0.000000	0.000000
		CHANNELS 3 Zrotation Xrotation Yrotation
		JOINT RightKnee
		{
			OFFSET	0.000000	-15.000000	0.000000
			CHANNELS 3 Zrotation Xrotation Yrotation
			JOINT RightAnkle
			{
				OFFSET	0.000000	-15.500000	0.000000
				CHANNELS 3 Zrotation Xrotation Yrotation
				End Site
				{
					OFFSET	0.000000	-4.500000	-3.000000
				}
			}
		}
	}
	JOINT Chest
	{
		OFFSET	0.000000	3.000000	-1.000000
		CHANNELS 3 Zrotation Xrotation Yrotation
		JOINT LeftCollar
		{
			OFFSET	0.000000	18.000000	1.000000
			CHANNELS 3 Zrotation Xrotation Yrotation
			JOINT LeftShoulder
			{
				OFFSET	7.500000	0.000000	0.000000
				CHANNELS 3 Zrotation Xrotation Yrotation
				JOINT LeftElbow
				{
					OFFSET	0.000000	-10.000000	0.000000
					CHANNELS 3 Zrotation Xrotation Yrotation
					JOINT LeftWrist
					{
						OFFSET	0.000000	-11.000000	0.000000
						CHANNELS 3 Zrotation Xrotation Yrotation
						End Site
						{
							OFFSET	0.000000	-7.000000	0.000000
						}
					}
				}
			}
		}
		JOINT RightCollar
		{
			OFFSET	0.000000	18.000000	1.000000
			CHANNELS 3 Zrotation Xrotation Yrotation
			JOINT RightShoulder
			{
				OFFSET	-7.500000	0.000000	0.000000
				CHANNELS 3 Zrotation Xrotation Yrotation
				JOINT RightElbow
				{
					OFFSET	0.000000	-10.000000	0.000000
					CHANNELS 3 Zrotation Xrotation Yrotation
					JOINT RightWrist
					{
						OFFSET	0.000000	-11.000000	0.000000
						CHANNELS 3 Zrotation Xrotation Yrotation
						End Site
						{
							OFFSET	0.000000	-7.000000	0.000000
						}
					}
				}
			}
		}
		JOINT Neck
		{
			OFFSET	0.000000	18.000000	1.000000
			CHANNELS 3 Zrotation Xrotation Yrotation
			JOINT Head
			{
				OFFSET	0.000000	2.000000	0.000000
				CHANNELS 3 Zrotation Xrotation Yrotation
				End Site
				{
					OFFSET	0.000000	7.000000	0.000000
				}
			}
		}
	}
}
MOTION
Frames:    18
Frame Time: 0.033333
3.594735	34.817036	-8.844568	-5.084566	-5.363420	-6.670737	18.076981	-2.236332	18.138876	1.000000	12.528625	0.000000	-9.486622	10.656942	-12.641150	7.612000	7.862026	-12.774467	-1.000000	-0.282006	0.000000	6.154696	0.898279	-29.626015	4.128390	7.837151	3.001226	1.372135	3.463365	-0.082907	-2.460558	14.828029	25.166990	-3.650612	-25.312111	-5.478589	-15.716614	0.620025	-11.989023	1.372135	3.463365	-0.082907	-17.482018	2.343036	1.551125	4.352404	-31.557705	5.813254	17.594341	-12.649861	7.486009	0.000000	0.080566	0.000000	6.765384	7.486396	5.787159	
3.684570	34.833691	-8.826721	-5.073726	-5.364480	-6.625600	17.915741	-2.238621	18.132580	1.000000	12.528625	0.000000	-9.486622	10.656942	-12.641150	7.612000	7.862026	-12.774467	-1.000000	-0.282006	0.000000	6.154696	0.898279	-29.626015	4.128390	7.837151	3.001226	1.372135	3.463365	-0.082907	-1.794191	14.378332	24.974031	-3.650612	-25.312111	-5.478589	-15.716614	0.620025	-11.989023	1.372135	3.463365	-0.082907	-17.478924	2.051873	1.470425	4.330147	-31.371052	5.801637	17.297876	-12.474192	6.694779	0.000000	0.080566	0.000000	6.749219	7.595865	5.768119	
3.691728	34.826736	-8.922855	-5.066465	-5.365268	-6.595456	17.918190	-2.405265	18.193010	1.000000	12.528625	0.000000	-9.486622	10.656942	-12.641150	7.612000	7.862026	-12.774467	-1.000000	-0.282006	0.000000	6.154696	0.898279	-29.626015	3.968127	7.836655	2.995572	1.210708	3.463584	-0.073155	-1.246404	13.816250	23.914053	-3.629374	-25.111612	-5.469542	-15.716614	0.620025	-11.989023	1.210708	3.463584	-0.073155	-17.474678	1.566592	1.335990	4.314541	-31.239725	5.793528	17.193327	-12.318110	6.086546	0.000000	0.080566	0.000000	6.237925	7.522517	5.863917	
3.692252	34.826824	-8.923664	-5.067315	-5.365173	-6.598989	17.918190	-2.405265	18.193010	1.000000	12.528625	0.000000	-9.486622	10.656942	-12.641150	7.612000	7.862026	-12.774467	-1.000000	-0.274052	0.000000	6.075025	0.750678	-29.624058	3.968626	7.675523	2.995505	1.049280	3.463776	-0.063402	-0.561646	13.061242	22.940716	-3.629374	-25.111612	-5.469542	-15.555677	0.618728	-11.982725	1.049280	3.463776	-0.063402	-17.833241	0.885613	1.153490	4.278984	-30.939142	5.775167	17.193327	-12.318110	6.086546	0.000000	0.080566	0.000000	6.806053	7.603940	5.757414	
3.692173	34.827385	-8.960828	-5.088992	-5.400196	-6.672685	17.918190	-2.405265	18.193010	1.000000	12.532912	0.000000	-9.329394	10.618286	-12.640425	7.612000	7.862026	-12.774467	-1.000000	-0.274052	0.000000	6.075025	0.750678	-29.624058	3.968626	7.675523	2.995505	1.049280	3.463776	-0.063402	0.118674	12.303994	21.534481	-3.629374	-25.111612	-5.469542	-15.555677	0.618728	-11.982725	1.049280	3.463776	-0.063402	-17.831404	0.207399	0.961154	4.229494	-30.517576	5.749879	17.144619	-12.074030	5.904075	0.000000	0.080566	0.000000	6.027390	7.379741	5.923154	
3.693047	34.826210	-8.993494	-5.110826	-5.406140	-6.759189	17.918190	-2.405265	18.193010	1.000000	12.552361	0.000000	-9.207614	10.408146	-12.635398	7.612000	7.862026	-12.774467	-1.000000	-0.104863	0.000000	6.075025	0.750678	-29.624058	3.808346	7.675044	2.989851	0.807139	3.464012	-0.048772	0.809719	11.343917	20.368179	-3.629374	-25.111612	-5.469542	-15.394741	0.617448	-11.976423	0.807139	3.464012	-0.048772	-18.074846	-0.857332	0.993685	4.174550	-30.045218	5.722174	16.964115	-11.892953	5.887953	0.000000	0.080566	0.000000	5.857190	7.354781	5.954243	
3.718383	34.835529	-8.859236	-5.128244	-5.418854	-6.825139	17.915741	-2.238621	18.132580	1.000000	12.721550	0.000000	-9.367532	10.409125	-12.641487	7.612000	7.862026	-12.774467	-1.000000	0.072225	0.000000	6.156018	0.601623	-29.636448	3.808346	7.675044	2.989851	0.807139	3.464012	-0.048772	1.359139	10.574620	19.361382	-3.627097	-25.090073	-5.468576	-15.585740	0.476295	-11.981900	0.807139	3.464012	-0.048772	-18.080511	-1.728255	1.757749	4.105369	-29.443966	5.687850	16.720415	-11.895382	5.877065	0.000000	0.080566	0.000000	6.042803	7.662472	5.869996	
3.720820	34.832973	-8.880335	-5.145224	-5.416943	-6.895501	17.915741	-2.238621	17.971449	1.000000	12.736678	0.000000	-9.402943	10.237682	-12.637453	7.612000	7.862026	-12.774467	-1.000000	0.241415	0.000000	6.156018	0.601623	-29.636448	3.567927	7.674354	2.981368	0.807279	3.625130	-0.051046	1.776460	9.896594	18.615669	-3.658968	-25.390820	-5.482166	-15.424790	0.475003	-11.975552	0.807279	3.625130	-0.051046	-18.088755	-2.502381	2.323935	4.071493	-29.146900	5.671274	16.962877	-11.868115	5.888117	0.000000	0.080566	0.000000	6.349108	7.685657	5.702419	
3.738648	34.836678	-8.845984	-5.160778	-5.415134	-6.960171	17.915741	-2.238621	17.971449	1.000000	12.880846	0.000000	-9.438567	10.240664	-12.471200	7.612000	7.862026	-12.774467	-1.000000	0.241415	0.000000	6.156018	0.601623	-29.636448	3.567927	7.674354	2.981368	0.807279	3.625130	-0.051046	1.804626	9.494741	18.164005	-3.712441	-25.892048	-5.505307	-15.424790	0.475003	-11.975552	0.807279	3.625130	-0.051046	-18.095446	-2.986191	2.860960	4.074754	-29.175577	5.672863	16.782503	-11.686970	5.872214	0.000000	0.080566	0.000000	5.685253	7.722781	5.918432	
3.750518	34.835400	-8.872956	-5.179192	-5.412971	-7.036945	17.915741	-2.238621	17.971449	1.000000	12.895921	0.000000	-9.473490	10.069171	-12.467364	7.612000	7.862026	-12.774467	-1.000000	0.237480	0.000000	6.016626	0.684622	-29.619444	3.327507	7.673700	2.972882	0.807279	3.625130	-0.051046	1.804626	9.494741	17.938419	-3.788073	-26.593733	-5.538750	-15.585740	0.476295	-11.981900	0.807279	3.625130	-0.051046	-18.103319	-3.469984	3.172277	4.074754	-29.175577	5.672863	16.782503	-11.686970	5.872214	0.000000	0.080566	0.000000	5.210324	7.279603	5.842724	
3.738380	34.836285	-8.897902	-5.192797	-5.411378	-7.093503	17.915741	-2.238621	17.971449	1.000000	12.862333	0.000000	-9.368696	10.036056	-12.217133	7.612000	7.862026	-12.774467	-1.000000	0.245352	0.000000	5.936977	0.537087	-29.617815	3.327507	7.673700	2.972882	0.807279	3.625130	-0.051046	1.804626	9.494741	17.938419	-3.853642	-27.195145	-5.568411	-15.585740	0.476295	-11.981900	0.807279	3.625130	-0.051046	-17.866438	-3.764793	3.329774	4.120539	-29.576431	5.695323	16.944925	-11.685364	5.879394	0.000000	0.080566	0.000000	5.174939	7.205852	6.141630	
3.739307	34.836437	-8.899332	-5.194309	-5.411198	-7.099774	17.915741	-2.238621	17.971449	1.000000	12.862333	0.000000	-9.368696	10.036056	-12.217133	7.612000	7.862026	-12.774467	-1.000000	0.245352	0.000000	5.936977	0.537087	-29.617815	3.167228	7.673284	2.967224	0.807279	3.625130	-0.051046	1.804626	9.494741	17.938419	-3.905666	-27.667732	-5.592378	-15.860617	0.298181	-11.995902	0.807279	3.625130	-0.051046	-17.866438	-3.764793	3.555360	4.178285	-30.077473	5.724044	16.944925	-11.685364	5.879394	0.000000	0.080566	0.000000	5.174939	7.205852	6.141630	
3.743261	34.837101	-8.905376	-5.200770	-5.410421	-7.126316	17.915741	-2.238621	17.971449	1.000000	12.862333	0.000000	-9.368696	10.036056	-12.217133	7.612000	7.862026	-12.774467	-1.000000	0.245352	0.000000	5.936977	0.537087	-29.617815	3.167228	7.673284	2.967224	0.807279	3.625130	-0.051046	1.804626	9.494741	17.938419	-3.927869	-27.868191	-5.602721	-15.860617	0.298181	-11.995902	0.807279	3.625130	-0.051046	-17.627924	-3.963241	3.742481	4.201546	-30.277884	5.735738	17.188566	-11.682917	5.890155	0.000000	0.080566	0.000000	5.722592	7.156792	5.952604	
3.746307	34.838928	-8.896437	-5.205479	-5.381700	-7.158787	17.915741	-2.238621	17.971449	1.000000	12.862333	0.000000	-9.368696	10.036056	-12.217133	7.612000	7.862026	-12.774467	-1.000000	0.245352	0.000000	5.936977	0.537087	-29.617815	3.006950	7.672883	2.961564	0.807279	3.625130	-0.051046	1.804626	9.494741	17.938419	-3.927869	-27.868191	-5.602721	-15.860617	0.298181	-11.995902	0.807279	3.625130	-0.051046	-17.627924	-3.963241	3.742481	4.236618	-30.578491	5.753500	17.188566	-11.682917	5.890155	0.000000	0.080566	0.000000	5.794470	7.448206	5.891451	
3.744968	34.840778	-8.872704	-5.202871	-5.337005	-7.169219	17.915741	-2.238621	17.971449	1.000000	12.862333	0.000000	-9.368696	10.036056	-12.217133	7.774646	7.859828	-12.796711	-1.000000	0.245352	0.000000	5.936977	0.537087	-29.617815	3.007352	7.511749	2.961511	0.807279	3.625130	-0.051046	1.804626	9.494741	17.938419	-3.927869	-27.868191	-5.602721	-16.021584	0.299534	-12.002305	0.807279	3.625130	-0.051046	-17.627924	-3.963241	3.968066	4.236618	-30.578491	5.753500	17.350986	-11.681262	5.897323	0.000000	0.080566	0.000000	5.156041	7.072700	6.052582	
3.742536	34.842041	-8.851395	-5.198563	-5.300987	-7.168719	17.915741	-2.238621	17.971449	1.000000	12.862333	0.000000	-9.368696	10.036056	-12.217133	7.774646	7.859828	-12.796711	-1.000000	0.076163	0.000000	5.936977	0.537087	-29.617815	3.007352	7.511749	2.961511	0.807279	3.625130	-0.051046	1.790548	9.695669	17.938643	-3.908047	-27.689274	-5.593483	-15.830526	0.440594	-11.996561	0.807279	3.625130	-0.051046	-17.627924	-3.963241	3.968066	4.234327	-30.558912	5.752336	17.360683	-11.542297	6.061818	0.000000	0.080566	0.000000	5.479109	7.233356	5.977264	
3.729939	34.841167	-8.893076	-5.198669	-5.266047	-7.185576	17.915741	-2.238621	17.971449	1.000000	12.693144	0.000000	-9.368696	10.036056	-12.217133	7.774646	7.859828	-12.796711	-1.000000	0.076163	0.000000	5.936977	0.537087	-29.617815	3.007352	7.511749	2.961511	0.807279	3.625130	-0.051046	1.790548	9.695669	17.938643	-3.911207	-27.717833	-5.594953	-15.797082	0.620679	-11.992170	0.807279	3.625130	-0.051046	-17.627924	-3.963241	3.968066	4.234327	-30.558912	5.752336	17.360683	-11.542297	6.061818	0.000000	0.080566	0.000000	5.876050	7.291625	5.905779	
3.730228	34.841381	-8.891768	-5.199100	-5.262379	-7.189043	17.915741	-2.238621	17.971449	1.000000	12.693144	0.000000	-9.368696	10.036056	-12.217133	7.774646	7.859828	-12.796711	-1.000000	0.076163	0.000000	5.936977	0.537087	-29.617815	3.007352	7.511749	2.961511	0.807279	3.625130	-0.051046	1.776460	9.896594	17.938915	-3.889065	-27.517372	-5.584689	-15.797082	0.620679	-11.992170	0.807279	3.625130	-0.051046	-17.624256	-3.769269	4.022443	4.261483	-30.790483	5.766189	17.503744	-11.340871	6.060114	0.000000	0.080566	0.000000	5.535801	7.241722	5.967089	
